<svg width="17" height="10" viewBox="0 0 17 10" fill="none" xmlns="http://www.w3.org/2000/svg">
<path d="M8.34669 9.5454C8.15238 9.5454 7.9639 9.50896 7.78125 9.4361C7.5986 9.36323 7.44704 9.26608 7.32657 9.14464L0.622928 2.441C0.355754 2.17382 0.222168 1.83378 0.222168 1.42088C0.222168 1.00797 0.355754 0.667934 0.622928 0.40076C0.890102 0.133586 1.23014 0 1.64305 0C2.05595 0 2.39599 0.133586 2.66317 0.40076L8.34669 6.08428L14.0302 0.40076C14.2974 0.133586 14.6374 0 15.0503 0C15.4632 0 15.8033 0.133586 16.0704 0.40076C16.3376 0.667934 16.4712 1.00797 16.4712 1.42088C16.4712 1.83378 16.3376 2.17382 16.0704 2.441L9.3668 9.14464C9.22107 9.29037 9.0632 9.39384 8.89318 9.45504C8.72316 9.51625 8.54099 9.54637 8.34669 9.5454Z" fill="black"/>
</svg>
