<svg width="49" height="50" viewBox="0 0 49 50" fill="none" xmlns="http://www.w3.org/2000/svg">
<path d="M10.1854 22.9628C9.06504 22.9628 8.10559 22.5635 7.30707 21.765C6.50855 20.9665 6.10997 20.0077 6.11133 18.8887V10.7406C6.11133 9.62021 6.51059 8.66077 7.30911 7.86225C8.10763 7.06373 9.06639 6.66515 10.1854 6.66651H18.3336C19.4539 6.66651 20.4134 7.06577 21.2119 7.86429C22.0104 8.6628 22.409 9.62157 22.4076 10.7406V18.8887C22.4076 20.0091 22.0084 20.9685 21.2099 21.7671C20.4113 22.5656 19.4526 22.9642 18.3336 22.9628H10.1854ZM10.1854 43.3332C9.06504 43.3332 8.10559 42.9339 7.30707 42.1354C6.50855 41.3369 6.10997 40.3781 6.11133 39.2591V31.111C6.11133 29.9906 6.51059 29.0311 7.30911 28.2326C8.10763 27.4341 9.06639 27.0355 10.1854 27.0369H18.3336C19.4539 27.0369 20.4134 27.4361 21.2119 28.2347C22.0104 29.0332 22.409 29.9919 22.4076 31.111V39.2591C22.4076 40.3795 22.0084 41.3389 21.2099 42.1374C20.4113 42.936 19.4526 43.3345 18.3336 43.3332H10.1854ZM30.5558 22.9628C29.4354 22.9628 28.476 22.5635 27.6774 21.765C26.8789 20.9665 26.4803 20.0077 26.4817 18.8887V10.7406C26.4817 9.62021 26.881 8.66077 27.6795 7.86225C28.478 7.06373 29.4368 6.66515 30.5558 6.66651H38.7039C39.8243 6.66651 40.7837 7.06577 41.5823 7.86429C42.3808 8.6628 42.7794 9.62157 42.778 10.7406V18.8887C42.778 20.0091 42.3787 20.9685 41.5802 21.7671C40.7817 22.5656 39.8229 22.9642 38.7039 22.9628H30.5558ZM30.5558 43.3332C29.4354 43.3332 28.476 42.9339 27.6774 42.1354C26.8789 41.3369 26.4803 40.3781 26.4817 39.2591V31.111C26.4817 29.9906 26.881 29.0311 27.6795 28.2326C28.478 27.4341 29.4368 27.0355 30.5558 27.0369H38.7039C39.8243 27.0369 40.7837 27.4361 41.5823 28.2347C42.3808 29.0332 42.7794 29.9919 42.778 31.111V39.2591C42.778 40.3795 42.3787 41.3389 41.5802 42.1374C40.7817 42.936 39.8229 43.3345 38.7039 43.3332H30.5558Z" fill="black"/>
</svg>
