<svg width="61" height="60" viewBox="0 0 61 60" fill="none" xmlns="http://www.w3.org/2000/svg">
<path d="M52.9443 15.0005C52.946 14.2938 52.7068 13.7005 52.2268 13.2205C51.7468 12.7405 51.1527 12.5005 50.4443 12.5005H22.9443C22.2377 12.4988 21.6443 12.738 21.1643 13.218C20.6843 13.698 20.4443 14.2922 20.4443 15.0005H52.9443ZM52.9443 15.0005V20.0005C52.9443 20.7088 52.7043 21.303 52.2243 21.783C51.7443 22.263 51.151 22.5022 50.4443 22.5005L52.9443 15.0005ZM8.72212 20.0023V20.0005V15.0005C8.72212 14.4884 8.8871 14.0952 9.21432 13.768C9.54144 13.4408 9.93328 13.2771 10.4425 13.2783V13.2783H10.4443H15.4443C15.9564 13.2783 16.3497 13.4433 16.6769 13.7705C17.004 14.0976 17.1678 14.4894 17.1666 14.9987V15.0005V20.0005C17.1666 20.5125 17.0016 20.9058 16.6744 21.233C16.3472 21.5601 15.9554 21.7239 15.4462 21.7227H15.4443H10.4443C9.93229 21.7227 9.53903 21.5577 9.21182 21.2305L8.66966 21.7727L9.21182 21.2305C8.88469 20.9034 8.72092 20.5116 8.72212 20.0023ZM21.2221 20.0023V20.0005V15.0005C21.2221 14.4884 21.3871 14.0952 21.7143 13.768C22.0414 13.4408 22.4333 13.2771 22.9425 13.2783H22.9443H50.4443C50.9564 13.2783 51.3497 13.4433 51.6769 13.7705C52.004 14.0976 52.1678 14.4894 52.1666 14.9987V15.0005V20.0005C52.1666 20.5126 52.0016 20.9058 51.6744 21.233C51.3472 21.5601 50.9554 21.7239 50.4462 21.7227H50.4443H22.9443C22.4323 21.7227 22.039 21.5577 21.7118 21.2305C21.3847 20.9034 21.2209 20.5116 21.2221 20.0023ZM21.2221 32.5023V32.5005V27.5005C21.2221 26.9884 21.3871 26.5952 21.7143 26.268C22.0414 25.9408 22.4333 25.7771 22.9425 25.7783H22.9443H50.4443C50.9564 25.7783 51.3497 25.9433 51.6769 26.2705C52.004 26.5976 52.1678 26.9894 52.1666 27.4987V27.5005V32.5005C52.1666 33.0126 52.0016 33.4058 51.6744 33.733C51.3472 34.0602 50.9554 34.2239 50.4462 34.2227H50.4443H22.9443C22.4323 34.2227 22.039 34.0577 21.7118 33.7305C21.3847 33.4034 21.2209 33.0116 21.2221 32.5023ZM8.72212 32.5023V32.5005V27.5005C8.72212 26.9884 8.8871 26.5952 9.21432 26.268L8.66434 25.718L9.21432 26.268C9.54144 25.9408 9.93328 25.7771 10.4425 25.7783H10.4443H15.4443C15.9564 25.7783 16.3497 25.9433 16.6769 26.2705C17.004 26.5976 17.1678 26.9894 17.1666 27.4987V27.5005V32.5005C17.1666 33.0126 17.0016 33.4058 16.6744 33.733C16.3472 34.0602 15.9554 34.2239 15.4462 34.2227H15.4443H10.4443C9.93229 34.2227 9.53903 34.0577 9.21182 33.7305C8.88469 33.4034 8.72092 33.0116 8.72212 32.5023ZM21.2221 45.0023V45.0005V40.0005C21.2221 39.4885 21.3871 39.0952 21.7143 38.768C22.0414 38.4408 22.4333 38.2771 22.9425 38.2783H22.9443H50.4443C50.9564 38.2783 51.3497 38.4433 51.6769 38.7705C52.004 39.0976 52.1678 39.4894 52.1666 39.9987V40.0005V45.0005C52.1666 45.5126 52.0016 45.9058 51.6744 46.233C51.3472 46.5602 50.9554 46.7239 50.4462 46.7227H50.4443H22.9443C22.4323 46.7227 22.039 46.5577 21.7118 46.2305C21.3847 45.9034 21.2209 45.5116 21.2221 45.0023ZM8.72212 45.0023V45.0005V40.0005C8.72212 39.4885 8.8871 39.0952 9.21432 38.768L8.67113 38.2248L9.21432 38.768C9.54144 38.4408 9.93328 38.2771 10.4425 38.2783H10.4443H15.4443C15.9564 38.2783 16.3497 38.4433 16.6769 38.7705C17.004 39.0976 17.1678 39.4894 17.1666 39.9987V40.0005V45.0005C17.1666 45.5126 17.0016 45.9058 16.6744 46.233C16.3472 46.5602 15.9554 46.7239 15.4462 46.7227H15.4443H10.4443C9.93229 46.7227 9.53903 46.5577 9.21182 46.2305C8.88469 45.9034 8.72092 45.5116 8.72212 45.0023ZM20.4443 32.5005V27.5005C20.4443 26.7922 20.6843 26.198 21.1643 25.718C21.6443 25.238 22.2377 24.9988 22.9443 25.0005L20.4443 32.5005Z" fill="white" stroke="black" stroke-width="1.55556"/>
</svg>
